# xmcd
#
# Track frame offsets: 
#        150
#        14370
#        28478
#        41680
#        52447
#        63698
#        74725
#        88880
#        101906
#        113225
#        125787
#        140483
#        154058
#        165063
#        178047
#        190449
#        203199
#
# Disc length: 2899 seconds
#
# Revision: 1
# Processed by: cddbd v1.5.2PL0 Copyright (c) Steve Scherf et al.
# Submitted via: ExactAudioCopy v0.99pb4
#
DISCID=0f0b5111
DTITLE=Juan Salvador - La gran colección 60 aniversario °2
DYEAR=2007
DGENRE=Trova
TTITLE0=Hoy comí con el abuelo
TTITLE1=Con estas ganas
TTITLE2=Al doblar la esquina
TTITLE3=Amantes de fin de semana
TTITLE4=Solo
TTITLE5=La primera botella de vino
TTITLE6=Con lluvia de mí mismo
TTITLE7=Adolescencia
TTITLE8=La tarde
TTITLE9=En donde quiera está el amor
TTITLE10=Lo lograrás
TTITLE11=El sol duerme
TTITLE12=El camino del viento
TTITLE13=Nada sé
TTITLE14=Diariamente
TTITLE15=Guajira veracruzana
TTITLE16=La Martiniana
EXTD=OAGF
EXTT0=
EXTT1=
EXTT2=
EXTT3=
EXTT4=
EXTT5=
EXTT6=
EXTT7=
EXTT8=
EXTT9=
EXTT10=
EXTT11=
EXTT12=
EXTT13=
EXTT14=
EXTT15=
EXTT16=
PLAYORDER=
